<svg version="1.0" xmlns="http://www.w3.org/2000/svg"
 width="500.000000pt" height="500.000000pt" viewBox="0 0 500.000000 500.000000"
 preserveAspectRatio="xMidYMid meet">
<metadata>
Created by potrace 1.16, written by Peter Selinger 2001-2019
</metadata>
<g transform="translate(0.000000,500.000000) scale(0.100000,-0.100000)"
fill="#000000" stroke="none">
<path d="M2200 4979 c-186 -28 -361 -68 -499 -116 -852 -290 -1483 -1016
-1652 -1897 -55 -289 -53 -662 6 -951 129 -635 482 -1177 1010 -1552 299 -212
632 -350 1001 -417 174 -32 479 -48 638 -34 152 12 222 25 416 76 504 131 932
397 1268 787 329 383 526 830 588 1335 22 182 15 545 -14 700 -102 543 -320
969 -685 1339 -206 210 -415 360 -682 491 -251 123 -502 199 -777 235 -122 16
-521 19 -618 4z m1323 -365 c354 -178 644 -425 872 -746 68 -95 200 -316 193
-324 -2 -1 -28 41 -58 94 -170 307 -428 594 -705 785 -116 81 -146 99 -290
174 -66 34 -117 62 -112 63 4 0 49 -21 100 -46z m-1148 -3294 c44 -17 29 -43
-25 -44 -41 -1 -45 -3 -45 -26 0 -19 12 -32 47 -55 53 -33 73 -68 62 -109 -9
-37 -41 -56 -94 -56 -53 0 -73 10 -65 32 5 12 20 15 58 14 50 -1 52 0 55 27 3
22 -3 30 -29 45 -99 52 -121 135 -45 168 38 16 48 17 81 4z m-603 -99 c16 -51
32 -91 35 -88 3 3 17 45 32 94 16 51 33 88 41 88 8 0 20 -39 35 -110 39 -191
38 -175 11 -175 -21 0 -24 7 -36 75 -7 41 -16 73 -20 70 -3 -2 -17 -36 -31
-75 -13 -38 -28 -69 -34 -67 -5 2 -20 32 -33 68 -13 35 -27 68 -31 72 -4 4
-14 -26 -21 -68 -12 -69 -15 -75 -37 -75 -18 0 -23 4 -19 18 2 9 14 69 26 132
12 63 23 121 26 128 10 31 29 0 56 -87z m258 2 c0 -116 12 -147 56 -151 55 -5
64 15 64 139 l0 109 26 0 26 0 -4 -121 c-3 -118 -4 -121 -31 -145 -40 -34
-118 -34 -152 1 -24 23 -25 30 -25 145 0 113 1 120 20 120 19 0 20 -7 20 -97z
m620 77 c0 -18 -7 -20 -65 -20 l-65 0 0 -35 c0 -35 0 -35 45 -35 38 0 45 -3
45 -20 0 -17 -7 -20 -45 -20 l-45 0 0 -50 0 -50 65 0 c58 0 65 -2 65 -20 0
-19 -7 -20 -90 -20 l-90 0 0 145 0 145 90 0 c83 0 90 -1 90 -20z m100 -93 c0
-75 4 -117 12 -125 15 -15 53 -16 79 -2 17 10 19 22 19 125 l0 115 25 0 25 0
0 -114 c0 -109 -1 -116 -26 -145 -23 -28 -32 -31 -80 -31 -45 0 -59 4 -79 25
-24 23 -25 30 -25 145 l0 120 25 0 25 0 0 -113z m311 19 c15 -48 29 -90 32
-93 3 -3 18 35 32 83 27 89 39 113 51 101 4 -3 17 -59 30 -124 13 -65 26 -128
29 -140 4 -19 1 -23 -18 -23 -22 0 -25 6 -37 75 -7 41 -16 73 -20 70 -3 -2
-17 -36 -31 -75 -13 -38 -28 -69 -34 -67 -5 2 -20 32 -33 68 -13 35 -27 68
-32 73 -4 4 -14 -26 -20 -68 -12 -71 -14 -76 -37 -76 -21 0 -24 4 -20 23 3 12
16 74 27 137 12 63 24 119 27 123 12 20 29 -6 54 -87z m-1311 -281 c7 -8 10
-25 6 -39 -3 -14 -2 -28 4 -31 14 -9 13 -48 -2 -63 -7 -7 -36 -12 -65 -12
l-53 0 0 80 0 80 49 0 c31 0 53 -5 61 -15z m412 -42 l15 -58 13 45 c7 25 14
51 16 58 2 6 13 12 24 12 18 0 20 -6 20 -80 0 -47 -4 -80 -10 -80 -6 0 -10 28
-11 63 l-1 62 -19 -62 c-11 -35 -25 -63 -32 -63 -7 0 -20 26 -29 58 l-16 57
-1 -57 c-1 -45 -5 -58 -16 -58 -12 0 -15 16 -15 80 0 78 1 80 24 80 21 0 26
-8 38 -57z m238 42 c7 -8 10 -24 7 -35 -3 -11 0 -33 6 -49 16 -44 -3 -61 -69
-61 l-54 0 0 80 0 80 49 0 c31 0 53 -5 61 -15z"/>
</g>
</svg>
