<?xml version="1.0" standalone="no"?>
<!DOCTYPE svg PUBLIC "-//W3C//DTD SVG 20010904//EN"
 "http://www.w3.org/TR/2001/REC-SVG-20010904/DTD/svg10.dtd">
<svg version="1.0" xmlns="http://www.w3.org/2000/svg"
 width="500.000000pt" height="500.000000pt" viewBox="0 0 500.000000 500.000000"
 preserveAspectRatio="xMidYMid meet">

<g transform="translate(0.000000,500.000000) scale(0.100000,-0.100000)"
fill="#000000" stroke="none">
<path d="M2249 4980 c-103 -10 -229 -33 -365 -66 -590 -143 -1131 -532 -1473
-1059 -356 -547 -479 -1200 -350 -1850 71 -357 222 -694 449 -1001 102 -137
358 -391 500 -496 335 -247 685 -397 1085 -463 109 -19 505 -38 595 -30 152
14 234 28 384 66 167 41 187 47 326 99 485 179 950 571 1234 1040 126 207 216
426 276 665 239 958 -79 1926 -835 2546 -338 278 -732 454 -1180 530 -136 23
-499 34 -646 19z m339 -137 c-49 -2 -127 -2 -175 0 -49 1 -9 3 87 3 96 0 136
-2 88 -3z m-330 -10 c-10 -2 -26 -2 -35 0 -10 3 -2 5 17 5 19 0 27 -2 18 -5z
m520 0 c-10 -2 -28 -2 -40 0 -13 2 -5 4 17 4 22 1 32 -1 23 -4z m-678 -23
c-57 -11 -106 -17 -108 -15 -2 2 13 7 34 10 22 4 55 11 74 15 19 4 51 8 70 8
19 0 -12 -8 -70 -18z m790 10 c16 -6 6 -7 -30 -3 -30 3 -57 7 -59 9 -8 7 64 2
89 -6z m73 -17 c-7 -2 -21 -2 -30 0 -10 3 -4 5 12 5 17 0 24 -2 18 -5z m135
-30 c34 -9 61 -18 58 -20 -4 -5 -169 37 -176 45 -6 6 28 -1 118 -25z m-1138 7
c-34 -11 -60 -11 -35 0 11 5 29 8 40 8 16 0 15 -2 -5 -8z m-61 -14 c-2 -2 -17
-6 -34 -10 -22 -5 -26 -4 -15 4 14 9 59 15 49 6z m-80 -20 c-3 -4 -87 -34
-164 -61 -18 -6 -19 -6 -2 5 31 20 181 70 166 56z m1396 -6 c13 -5 14 -9 5 -9
-8 0 -24 4 -35 9 -13 5 -14 9 -5 9 8 0 24 -4 35 -9z m128 -47 c37 -14 65 -28
63 -30 -4 -4 -158 56 -166 64 -6 7 12 1 103 -34z m-1723 -23 c-8 -5 -19 -10
-25 -10 -5 0 -3 5 5 10 8 5 20 10 25 10 6 0 3 -5 -5 -10z m-100 -45 c-36 -19
-69 -34 -75 -34 -5 0 19 15 55 34 36 19 70 34 75 34 6 0 -19 -15 -55 -34z
m2003 -11 c354 -178 644 -425 872 -746 68 -95 200 -316 193 -324 -2 -1 -28 41
-58 94 -170 307 -428 594 -705 785 -116 81 -146 99 -290 174 -66 34 -117 62
-112 63 4 0 49 -21 100 -46z m-2093 -29 c0 -2 -19 -14 -42 -26 -24 -12 -87
-51 -141 -86 -54 -35 -96 -59 -93 -54 8 13 107 78 196 128 78 45 80 46 80 38z
m-290 -178 c0 -2 -37 -33 -82 -69 -144 -114 -319 -295 -421 -435 -21 -29 -41
-53 -43 -53 -9 0 8 23 102 141 98 122 239 263 363 361 70 55 81 63 81 55z
m1392 -44 c-40 -2 -103 -2 -140 0 -37 2 -4 3 73 3 77 0 107 -2 67 -3z m26 -50
c-54 -2 -142 -2 -195 0 -54 1 -10 3 97 3 107 0 151 -2 98 -3z m-5 -140 c-45
-2 -122 -2 -170 0 -48 1 -11 3 82 3 94 0 133 -2 88 -3z m94 -125 c-3 -8 -6 -5
-6 6 -1 11 2 17 5 13 3 -3 4 -12 1 -19z m-379 -72 c-7 -8 -15 -12 -17 -11 -5
6 10 25 20 25 5 0 4 -6 -3 -14z m-11 -58 c-3 -8 -6 -5 -6 6 -1 11 2 17 5 13 3
-3 4 -12 1 -19z m-1683 -105 c-53 -82 -67 -103 -71 -103 -5 0 28 57 59 103 11
15 22 27 25 27 3 0 -3 -12 -13 -27z m1651 7 c3 -6 -1 -7 -9 -4 -18 7 -21 14
-7 14 6 0 13 -4 16 -10z m490 0 c-3 -5 -12 -10 -18 -10 -7 0 -6 4 3 10 19 12
23 12 15 0z m5 -65 c0 -13 -35 -15 -252 -15 -139 0 -258 4 -265 8 -6 4 105 6
248 4 176 -2 259 0 259 8 0 5 2 10 5 10 3 0 5 -7 5 -15z m-2299 -209 c-42 -84
-77 -152 -79 -151 -8 7 141 305 152 305 1 0 -31 -69 -73 -154z m2306 139 c-11
-11 -517 -9 -529 3 -4 4 116 7 266 7 181 0 269 -3 263 -10z m30 -42 c-3 -10
-5 -4 -5 12 0 17 2 24 5 18 2 -7 2 -21 0 -30z m28 -41 c-3 -3 -11 0 -18 7 -9
10 -8 11 6 5 10 -3 15 -9 12 -12z m-622 -29 c-7 -2 -19 -2 -25 0 -7 3 -2 5 12
5 14 0 19 -2 13 -5z m620 0 c-7 -2 -19 -2 -25 0 -7 3 -2 5 12 5 14 0 19 -2 13
-5z m-630 -63 c4 -16 0 -20 -16 -19 -12 0 -16 3 -9 6 6 2 12 11 12 19 0 20 7
17 13 -6z m2501 -110 c4 -14 -9 8 -29 49 -19 40 -35 76 -35 80 1 10 57 -103
64 -129z m-1839 100 c-3 -5 -16 -10 -28 -9 -20 1 -20 2 3 9 14 4 26 8 28 9 2
1 0 -3 -3 -9z m13 -65 c-5 -5 -673 -8 -713 -3 -11 2 144 5 345 8 201 3 367 4
369 3 2 -2 2 -5 -1 -8z m-717 -38 c-10 -9 -11 -8 -5 6 3 10 9 15 12 12 3 -3 0
-11 -7 -18z m-44 -34 c-3 -10 -5 -4 -5 12 0 17 2 24 5 18 2 -7 2 -21 0 -30z
m-1773 -118 c-25 -72 -42 -114 -38 -95 4 19 22 77 40 129 19 52 34 97 34 99 0
3 2 3 4 1 3 -2 -15 -63 -40 -134z m4421 -8 c19 -57 35 -111 35 -118 -1 -8 -18
38 -39 101 -22 63 -42 124 -46 135 -6 17 -5 18 4 3 6 -9 27 -63 46 -121z
m-2678 71 c-3 -8 -6 -5 -6 6 -1 11 2 17 5 13 3 -3 4 -12 1 -19z m651 -25
c-126 -2 -330 -2 -455 0 -126 1 -23 2 227 2 250 0 353 -1 228 -2z m-651 -75
c-2 -13 -4 -5 -4 17 -1 22 1 32 4 23 2 -10 2 -28 0 -40z m-70 -20 c-2 -13 -4
-5 -4 17 -1 22 1 32 4 23 2 -10 2 -28 0 -40z m1000 5 c-3 -10 -5 -2 -5 17 0
19 2 27 5 18 2 -10 2 -26 0 -35z m-2736 -178 c-11 -44 -20 -73 -20 -64 -1 23
32 166 35 154 2 -5 -5 -46 -15 -90z m2476 88 c-137 -2 -357 -2 -490 0 -133 1
-21 2 248 2 270 0 378 -1 242 -2z m2050 -25 c-3 -8 -6 -5 -6 6 -1 11 2 17 5
13 3 -3 4 -12 1 -19z m-2054 -5 c-134 -2 -352 -2 -485 0 -134 1 -25 2 242 2
267 0 376 -1 243 -2z m2086 -128 c0 -11 -7 5 -14 35 -18 72 -17 100 1 35 7
-27 13 -59 13 -70z m-4588 -76 c-5 -30 -9 -42 -10 -28 -1 30 10 92 15 86 3 -2
0 -28 -5 -58z m4596 19 c-3 -7 -5 -2 -5 12 0 14 2 19 5 13 2 -7 2 -19 0 -25z
m10 -70 c-2 -13 -4 -5 -4 17 -1 22 1 32 4 23 2 -10 2 -28 0 -40z m-2064 35
c-156 -2 -410 -2 -565 0 -156 1 -29 2 282 2 311 0 438 -1 283 -2z m-561 -40
c-51 -2 -132 -2 -180 0 -48 1 -6 3 93 3 99 0 138 -2 87 -3z m673 0 c-112 -3
-161 -7 -167 -16 -6 -9 -8 -9 -8 0 0 6 -8 14 -17 16 -10 3 65 4 167 4 l185 -1
-160 -3z m-2668 -50 c-3 -10 -5 -2 -5 17 0 19 2 27 5 18 2 -10 2 -26 0 -35z
m4630 -20 c-3 -10 -5 -2 -5 17 0 19 2 27 5 18 2 -10 2 -26 0 -35z m-2629 10
c-43 -2 -113 -2 -155 0 -43 1 -8 3 77 3 85 0 120 -2 78 -3z m710 0 c-42 -2
-114 -2 -160 0 -46 1 -11 3 77 3 88 0 125 -2 83 -3z m-2721 -110 c-2 -21 -4
-6 -4 32 0 39 2 55 4 38 2 -18 2 -50 0 -70z m4650 -65 c-2 -29 -3 -8 -3 47 0
55 1 79 3 53 2 -26 2 -71 0 -100z m-2637 37 l0 -45 -60 0 c-51 0 -60 3 -59 18
0 10 3 12 6 5 3 -8 24 -13 54 -13 l49 0 0 40 c0 22 2 40 5 40 3 0 5 -20 5 -45z
m-2023 -168 c-2 -23 -3 -1 -3 48 0 50 1 68 3 42 2 -26 2 -67 0 -90z m2690 103
c1 -21 1 -22 -3 -3 -5 19 -13 23 -60 26 l-54 4 57 -1 c54 -1 58 -3 60 -26z
m-780 -97 c-2 -16 -4 -3 -4 27 0 30 2 43 4 28 2 -16 2 -40 0 -55z m183 42 c0
-8 -2 -15 -4 -15 -2 0 -6 7 -10 15 -3 8 -1 15 4 15 6 0 10 -7 10 -15z m298 8
c-54 -2 -142 -2 -195 0 -54 1 -10 3 97 3 107 0 151 -2 98 -3z m2269 -185 c-2
-29 -3 -6 -3 52 0 58 1 81 3 53 2 -29 2 -77 0 -105z m-2200 45 c-2 -21 -4 -6
-4 32 0 39 2 55 4 38 2 -18 2 -50 0 -70z m-320 -56 c-2 -23 -3 -1 -3 48 0 50
1 68 3 42 2 -26 2 -67 0 -90z m560 81 c-3 -8 -6 -5 -6 6 -1 11 2 17 5 13 3 -3
4 -12 1 -19z m-2690 -110 c-2 -18 -4 -4 -4 32 0 36 2 50 4 33 2 -18 2 -48 0
-65z m4640 -65 c-3 -10 -5 -2 -5 17 0 19 2 27 5 18 2 -10 2 -26 0 -35z m-4630
-20 c-3 -10 -5 -2 -5 17 0 19 2 27 5 18 2 -10 2 -26 0 -35z m4620 -55 c-2 -13
-4 -5 -4 17 -1 22 1 32 4 23 2 -10 2 -28 0 -40z m-4610 -20 c-2 -13 -4 -5 -4
17 -1 22 1 32 4 23 2 -10 2 -28 0 -40z m4600 -40 c-3 -7 -5 -2 -5 12 0 14 2
19 5 13 2 -7 2 -19 0 -25z m-4579 -58 c0 -22 -1 -22 -8 5 -4 17 -8 39 -8 50 0
16 2 15 8 -5 4 -14 8 -36 8 -50z m2092 66 c0 -2 -8 -10 -17 -17 -16 -13 -17
-12 -4 4 13 16 21 21 21 13z m344 -32 c3 -8 2 -12 -4 -9 -6 3 -10 10 -10 16 0
14 7 11 14 -7z m2121 -89 c-10 -42 -19 -74 -21 -72 -2 2 4 41 13 86 10 45 19
78 21 72 2 -6 -4 -45 -13 -86z m-4548 3 c-3 -8 -6 -5 -6 6 -1 11 2 17 5 13 3
-3 4 -12 1 -19z m21 -78 c0 -9 -3 -7 -8 5 -5 11 -8 29 -8 40 0 16 2 15 8 -5 4
-14 8 -32 8 -40z m45 -140 c19 -58 38 -114 42 -125 5 -15 4 -16 -3 -5 -11 17
-66 170 -76 215 -14 56 2 21 37 -85z m4422 0 c-15 -45 -29 -80 -31 -78 -2 2 9
41 23 86 15 45 29 80 31 77 2 -2 -8 -40 -23 -85z m-2498 18 c-3 -8 -6 -5 -6 6
-1 11 2 17 5 13 3 -3 4 -12 1 -19z m170 -20 c-3 -7 -5 -2 -5 12 0 14 2 19 5
13 2 -7 2 -19 0 -25z m371 -33 c-3 -3 -9 2 -12 12 -6 14 -5 15 5 6 7 -7 10
-15 7 -18z m1913 -82 c-12 -20 -14 -14 -5 12 4 9 9 14 11 11 3 -2 0 -13 -6
-23z m-37 -95 c-15 -35 -32 -67 -37 -73 -5 -5 -1 8 8 30 10 22 24 57 33 78 8
20 17 35 19 33 3 -3 -8 -33 -23 -68z m-4227 -85 c-5 -4 -67 130 -67 143 1 5
16 -24 35 -65 20 -41 34 -76 32 -78z m4143 -87 c-23 -42 -44 -76 -46 -76 -3 0
14 36 38 80 23 43 44 77 46 75 2 -2 -15 -38 -38 -79z m-4104 22 c102 -201 251
-399 442 -586 171 -167 344 -292 567 -409 55 -29 96 -52 92 -53 -5 0 -54 23
-109 52 -123 63 -292 175 -414 273 -224 182 -463 476 -588 723 -14 28 -24 52
-21 52 2 0 17 -23 31 -52z m1929 -68 c44 -17 29 -43 -25 -44 -41 -1 -45 -3
-45 -26 0 -19 12 -32 47 -55 53 -33 73 -68 62 -109 -9 -37 -41 -56 -94 -56
-53 0 -73 10 -65 32 5 12 20 15 58 14 50 -1 52 0 55 27 3 22 -3 30 -29 45 -99
52 -121 135 -45 168 38 16 48 17 81 4z m-603 -99 c16 -51 32 -91 35 -88 3 3
17 45 32 94 16 51 33 88 41 88 8 0 20 -39 35 -110 39 -191 38 -175 11 -175
-21 0 -24 7 -36 75 -7 41 -16 73 -20 70 -3 -2 -17 -36 -31 -75 -13 -38 -28
-69 -34 -67 -5 2 -20 32 -33 68 -13 35 -27 68 -31 72 -4 4 -14 -26 -21 -68
-12 -69 -15 -75 -37 -75 -18 0 -23 4 -19 18 2 9 14 69 26 132 12 63 23 121 26
128 10 31 29 0 56 -87z m258 2 c0 -116 12 -147 56 -151 55 -5 64 15 64 139 l0
109 26 0 26 0 -4 -121 c-3 -118 -4 -121 -31 -145 -40 -34 -118 -34 -152 1 -24
23 -25 30 -25 145 0 113 1 120 20 120 19 0 20 -7 20 -97z m620 77 c0 -18 -7
-20 -65 -20 l-65 0 0 -35 c0 -35 0 -35 45 -35 38 0 45 -3 45 -20 0 -17 -7 -20
-45 -20 l-45 0 0 -50 0 -50 65 0 c58 0 65 -2 65 -20 0 -19 -7 -20 -90 -20
l-90 0 0 145 0 145 90 0 c83 0 90 -1 90 -20z m100 -93 c0 -75 4 -117 12 -125
15 -15 53 -16 79 -2 17 10 19 22 19 125 l0 115 25 0 25 0 0 -114 c0 -109 -1
-116 -26 -145 -23 -28 -32 -31 -80 -31 -45 0 -59 4 -79 25 -24 23 -25 30 -25
145 l0 120 25 0 25 0 0 -113z m311 19 c15 -48 29 -90 32 -93 3 -3 18 35 32 83
27 89 39 113 51 101 4 -3 17 -59 30 -124 13 -65 26 -128 29 -140 4 -19 1 -23
-18 -23 -22 0 -25 6 -37 75 -7 41 -16 73 -20 70 -3 -2 -17 -36 -31 -75 -13
-38 -28 -69 -34 -67 -5 2 -20 32 -33 68 -13 35 -27 68 -32 73 -4 4 -14 -26
-20 -68 -12 -71 -14 -76 -37 -76 -21 0 -24 4 -20 23 3 12 16 74 27 137 12 63
24 119 27 123 12 20 29 -6 54 -87z m1433 42 c-137 -227 -309 -427 -507 -591
-108 -90 -263 -197 -347 -240 -66 -33 -54 -24 68 51 109 67 251 172 347 257
101 91 275 293 362 421 42 63 78 114 80 114 2 0 1 -6 -3 -12z m-2744 -323 c7
-8 10 -25 6 -39 -3 -14 -2 -28 4 -31 14 -9 13 -48 -2 -63 -7 -7 -36 -12 -65
-12 l-53 0 0 80 0 80 49 0 c31 0 53 -5 61 -15z m82 -52 l3 -68 38 -3 c57 -5
44 -22 -18 -22 l-55 0 0 80 c0 63 3 80 15 80 11 0 15 -16 17 -67z m216 -10
c19 -49 26 -79 19 -82 -6 -2 -17 6 -25 18 -19 28 -72 29 -79 1 -5 -18 -33 -29
-33 -13 0 3 12 39 27 80 37 98 52 97 91 -4z m114 20 l15 -58 13 45 c7 25 14
51 16 58 2 6 13 12 24 12 18 0 20 -6 20 -80 0 -47 -4 -80 -10 -80 -6 0 -10 28
-11 63 l-1 62 -19 -62 c-11 -35 -25 -63 -32 -63 -7 0 -20 26 -29 58 l-16 57
-1 -57 c-1 -45 -5 -58 -16 -58 -12 0 -15 16 -15 80 0 78 1 80 24 80 21 0 26
-8 38 -57z m238 42 c7 -8 10 -24 7 -35 -3 -11 0 -33 6 -49 16 -44 -3 -61 -69
-61 l-54 0 0 80 0 80 49 0 c31 0 53 -5 61 -15z m161 -65 c34 -88 33 -80 15
-80 -8 0 -18 9 -21 20 -5 15 -15 20 -40 20 -25 0 -35 -5 -40 -20 -3 -11 -13
-20 -21 -20 -18 0 -18 -1 7 62 12 29 25 63 30 76 16 40 39 21 70 -58z m114 27
l30 -52 3 53 c2 37 7 52 18 52 11 0 14 -17 14 -80 0 -98 -15 -105 -63 -28
l-32 52 -3 -52 c-2 -35 -7 -52 -16 -52 -10 0 -14 22 -15 80 -2 71 0 80 16 80
11 0 29 -20 48 -53z m225 38 c9 -11 10 -19 3 -26 -7 -7 -14 -5 -23 6 -27 33
-80 3 -80 -46 0 -45 33 -69 74 -53 23 9 20 34 -4 34 -11 0 -20 5 -20 10 0 6
16 10 35 10 32 0 35 -2 35 -30 0 -35 -23 -50 -74 -50 -25 0 -40 7 -55 26 -45
57 -11 134 59 134 22 0 43 -6 50 -15z m161 -65 c34 -88 33 -80 15 -80 -8 0
-18 9 -21 20 -5 15 -15 20 -40 20 -25 0 -35 -5 -40 -20 -3 -11 -13 -20 -22
-20 -8 0 -13 6 -11 13 3 6 16 43 29 80 32 91 50 88 90 -13z m114 27 l30 -52 3
53 c2 37 7 52 18 52 11 0 14 -17 14 -80 0 -98 -15 -105 -63 -28 l-32 52 -3
-52 c-2 -37 -7 -52 -18 -52 -11 0 -14 17 -14 80 0 70 2 80 18 80 10 0 29 -21
47 -53z m391 -512 c-11 -8 -25 -15 -30 -15 -6 1 0 7 14 15 32 19 40 18 16 0z
m-50 -24 c-6 -10 -66 -33 -66 -26 0 3 15 11 33 19 40 18 39 18 33 7z m-1829
-79 c51 -20 91 -37 89 -39 -5 -5 -156 51 -191 71 -33 19 -30 18 102 -32z
m1733 34 c-14 -7 -36 -16 -50 -20 -14 -3 -7 3 15 13 45 22 73 27 35 7z m-90
-36 c-8 -5 -19 -10 -25 -10 -5 0 -3 5 5 10 8 5 20 10 25 10 6 0 3 -5 -5 -10z
m-105 -40 c-11 -5 -27 -9 -35 -9 -9 0 -8 4 5 9 11 5 27 9 35 9 9 0 8 -4 -5 -9z
m-1332 -25 c37 -10 65 -20 63 -22 -5 -6 -146 34 -155 43 -3 4 1 5 9 2 8 -3 45
-13 83 -23z m1232 -5 c-11 -5 -29 -8 -40 -8 -16 0 -15 2 5 8 34 11 60 11 35 0z
m-68 -16 c-3 -3 -12 -4 -19 -1 -8 3 -5 6 6 6 11 1 17 -2 13 -5z m-1054 -11
c-7 -2 -19 -2 -25 0 -7 3 -2 5 12 5 14 0 19 -2 13 -5z m44 -9 c-3 -3 -12 -4
-19 -1 -8 3 -5 6 6 6 11 1 17 -2 13 -5z m913 -4 c-14 -4 -38 -8 -55 -8 -29 1
-29 1 5 8 50 11 83 11 50 0z m-857 -7 c-7 -2 -21 -2 -30 0 -10 3 -4 5 12 5 17
0 24 -2 18 -5z m60 -10 c-7 -2 -21 -2 -30 0 -10 3 -4 5 12 5 17 0 24 -2 18 -5z
m700 0 c-7 -2 -19 -2 -25 0 -7 3 -2 5 12 5 14 0 19 -2 13 -5z m-605 -10 c-10
-2 -28 -2 -40 0 -13 2 -5 4 17 4 22 1 32 -1 23 -4z m530 0 c-10 -2 -26 -2 -35
0 -10 3 -2 5 17 5 19 0 27 -2 18 -5z m-390 -10 c-21 -2 -57 -2 -80 0 -24 2 -7
4 37 4 44 0 63 -2 43 -4z m290 0 c-21 -2 -57 -2 -80 0 -24 2 -7 4 37 4 44 0
63 -2 43 -4z"/>
<path d="M1670 920 c0 -15 7 -20 28 -20 35 0 45 9 31 27 -18 21 -59 17 -59 -7z"/>
<path d="M1670 845 c0 -19 5 -25 23 -25 31 0 51 15 44 34 -4 10 -18 16 -37 16
-25 0 -30 -4 -30 -25z"/>
<path d="M1991 902 c-16 -30 -14 -42 9 -42 21 0 27 24 11 49 -7 11 -11 10 -20
-7z"/>
<path d="M2320 921 c0 -17 6 -21 31 -21 24 0 30 4 27 18 -2 10 -14 18 -31 20
-22 3 -27 -1 -27 -17z"/>
<path d="M2320 845 c0 -19 5 -25 23 -25 31 0 51 15 44 34 -4 10 -18 16 -37 16
-25 0 -30 -4 -30 -25z"/>
<path d="M2502 895 c-16 -34 -15 -35 8 -35 21 0 27 24 12 48 -6 9 -12 5 -20
-13z"/>
<path d="M3001 897 c-14 -37 -14 -37 9 -37 21 0 27 24 10 50 -7 11 -11 9 -19
-13z"/>
</g>
</svg>
